<svg xmlns="http://www.w3.org/2000/svg" version="1.1" xmlns:xlink="http://www.w3.org/1999/xlink" xmlns:svgjs="http://svgjs.com/svgjs" width="512" height="512" x="0" y="0" viewBox="0 0 504.519 504.519" style="enable-background:new 0 0 512 512" xml:space="preserve" class=""><g><path fill="#0078c8" d="M474.206 148.102c-.066-.002-.13-.01-.196-.01H243.605v346.827c1.403 0 2.67-.774 3.38-1.984 4.281-7.295 12.202-12.193 21.271-12.193H474.01c.066 0 .13-.008.196-.01z" data-original="#0078c8"></path><path fill="#0268b4" d="M474.01 148.092h-42.414a5.701 5.701 0 0 1 5.701 5.701v321.248a5.7 5.7 0 0 1-5.701 5.701h42.414a5.701 5.701 0 0 0 5.701-5.701V153.793a5.702 5.702 0 0 0-5.701-5.701z" data-original="#0268b4"></path><path fill="#d5e3f4" d="M439.792 129.239H257.857c-7.871 0-14.252 6.381-14.252 14.252v306.636h2.311c2.543-3.902 6.937-6.486 11.941-6.486h181.935z" data-original="#d5e3f4"></path><path fill="#0268b4" d="M243.605 494.919V148.092H13.201a5.701 5.701 0 0 0-5.701 5.701V475.04a5.701 5.701 0 0 0 5.701 5.701h205.753c9.069 0 16.99 4.899 21.271 12.193.71 1.211 1.977 1.985 3.38 1.985z" data-original="#0268b4"></path><path fill="#f47c7c" d="M396.122 413.971H295.839a7.742 7.742 0 0 1-7.742-7.742v-75.212a7.742 7.742 0 0 1 7.742-7.742h100.283a7.742 7.742 0 0 1 7.742 7.742v75.212a7.741 7.741 0 0 1-7.742 7.742z" data-original="#f47c7c"></path><path fill="#b3dafe" d="M241.294 450.127h2.311V143.491c0-7.871-6.381-14.252-14.252-14.252H45.505a6.651 6.651 0 0 0-6.651 6.651v301.1a6.651 6.651 0 0 0 6.651 6.651h183.849c5.004 0 9.398 2.585 11.94 6.486z" data-original="#b3dafe" class=""></path><path fill="#e5eef9" d="M155.584 292.12v55.303l32.845-23.13c3.128-2.203 3.128-6.84 0-9.043z" data-original="#e5eef9"></path><path fill="#b3dafe" d="M441.706 129.239h-33.931a6.651 6.651 0 0 1 6.651 6.651v301.1a6.651 6.651 0 0 1-6.651 6.651h33.931a6.651 6.651 0 0 0 6.651-6.651v-301.1a6.651 6.651 0 0 0-6.651-6.651z" data-original="#b3dafe" class=""></path><path fill="#fdb97e" d="M360.063 206.83h55.724a76.103 76.103 0 0 1 17.599-28.832c11.698-12.025 18.668-28.671 17.892-46.947-1.39-32.745-28.111-59.35-60.862-60.604-36.156-1.384-65.902 27.516-65.902 63.363 0 17.191 6.846 32.775 17.957 44.193a76.063 76.063 0 0 1 17.591 28.823z" data-original="#fdb97e"></path><path fill="#678d98" d="M360.063 206.83h55.724v22.819c0 15.388-12.474 27.862-27.862 27.862-15.388 0-27.862-12.474-27.862-27.862z" data-original="#678d98"></path><path fill="#fea95c" d="M451.278 131.052c-1.39-32.745-28.111-59.35-60.862-60.604a63.775 63.775 0 0 0-16.661 1.548c27.243 6.258 48.026 30.282 49.247 59.056.776 18.276-6.194 34.921-17.892 46.947a76.103 76.103 0 0 0-17.599 28.832h28.276a76.111 76.111 0 0 1 17.599-28.832c11.698-12.026 18.668-28.671 17.892-46.947z" data-original="#fea95c"></path><path fill="#537983" d="M387.511 206.83v22.819c0 10.225-5.512 19.159-13.724 24.006a27.72 27.72 0 0 0 14.138 3.856c15.388 0 27.862-12.474 27.862-27.862V206.83z" data-original="#537983"></path><path fill="#f9c6c6" d="M155.584 292.12v55.303l32.845-23.13c3.128-2.203 3.128-6.84 0-9.043z" data-original="#f9c6c6"></path><path fill="#f9b1b1" d="M188.428 324.293c3.128-2.203 3.128-6.84 0-9.043l-32.845-23.13v25.448l21.197 14.927z" data-original="#f9b1b1"></path><path fill="#e94444" d="M16.349 292.079a8.85 8.85 0 0 0-8.849 8.849v25.491a8.85 8.85 0 0 1 8.849-8.849h35.265v-25.491z" data-original="#e94444"></path><path fill="#d83131" d="M51.614 297.776h103.97v49.648H51.614z" data-original="#d83131" class=""></path><path fill="#f47c7c" d="M7.5 306.624v31.951a8.85 8.85 0 0 0 8.849 8.849h35.265v-49.648H16.349a8.848 8.848 0 0 0-8.849 8.848z" data-original="#f47c7c"></path><path fill="#ca2c2c" d="M51.614 292.12h103.97v25.448H51.614z" data-original="#ca2c2c" class=""></path><path fill="#ee6161" d="M7.5 300.969v25.45a8.85 8.85 0 0 1 8.849-8.849h35.265v-25.45H16.349a8.85 8.85 0 0 0-8.849 8.849z" data-original="#ee6161"></path><path d="M286.438 295.491h119.086a8.295 8.295 0 0 0 0-16.591H286.438a8.295 8.295 0 0 0-8.295 8.295 8.294 8.294 0 0 0 8.295 8.296zM396.123 315.774H295.839c-8.405 0-15.242 6.838-15.242 15.243v75.212c0 8.405 6.837 15.242 15.242 15.242h100.283c8.405 0 15.242-6.837 15.242-15.242v-75.212c.001-8.405-6.837-15.243-15.241-15.243zm.242 90.455a.242.242 0 0 1-.242.242H295.839a.242.242 0 0 1-.242-.242v-75.212c0-.134.109-.243.242-.243h100.283c.133 0 .242.109.242.243v75.212zM387.926 39.228a7.5 7.5 0 0 0 7.5-7.5V9.629a7.5 7.5 0 0 0-15 0v22.098a7.5 7.5 0 0 0 7.5 7.501zM330.765 51.742c1.464 1.464 3.384 2.197 5.303 2.197s3.839-.732 5.303-2.197a7.5 7.5 0 0 0 0-10.606L325.746 25.51a7.5 7.5 0 0 0-10.606 0 7.5 7.5 0 0 0 0 10.606zM439.784 53.939a7.474 7.474 0 0 0 5.303-2.197l15.625-15.625a7.5 7.5 0 0 0 0-10.606 7.5 7.5 0 0 0-10.606 0L434.48 41.136a7.5 7.5 0 0 0 5.304 12.803zM497.019 82.627h-22.098a7.5 7.5 0 0 0 0 15h22.098a7.5 7.5 0 0 0 0-15zM278.832 97.627h22.098a7.5 7.5 0 0 0 0-15h-22.098a7.5 7.5 0 0 0 0 15zM81.687 182.62h119.086a8.295 8.295 0 0 0 0-16.591H81.687a8.295 8.295 0 0 0-8.295 8.296 8.294 8.294 0 0 0 8.295 8.295zM81.687 220.244h119.086a8.295 8.295 0 0 0 0-16.59H81.687a8.295 8.295 0 0 0 0 16.59zM209.068 249.572a8.295 8.295 0 0 0-8.295-8.296H81.687a8.295 8.295 0 0 0 0 16.591h119.086a8.295 8.295 0 0 0 8.295-8.295zM81.687 398.955h119.086a8.295 8.295 0 0 0 0-16.591H81.687a8.295 8.295 0 0 0-8.295 8.295 8.294 8.294 0 0 0 8.295 8.296z" fill="#000000" data-original="#000000" class=""></path><path d="M467.74 140.592h-9.226a71.96 71.96 0 0 0 .322-6.779 70.417 70.417 0 0 0-11.308-38.301 7.501 7.501 0 0 0-12.597 8.143c9.743 15.071 11.11 34.198 6.276 47.088-3.099 12.397-14.656 23.554-15.654 24.674-.136.152-.273.303-.407.456a84.56 84.56 0 0 0-14.562 23.457h-45.322c-3.898-9.474-9.804-18.732-17.417-26.556-10.209-10.492-15.832-24.329-15.832-38.962 0-30.66 24.95-55.912 55.911-55.912.732 0 1.467.014 2.204.042a54.832 54.832 0 0 1 21.947 5.486 7.5 7.5 0 0 0 6.54-13.5 69.764 69.764 0 0 0-27.915-6.975c-36.187-1.367-66.733 24.544-72.638 58.786h-60.206a21.652 21.652 0 0 0-14.251 5.34c-3.821-3.322-8.803-5.34-14.252-5.34H45.505c-7.803 0-14.151 6.348-14.151 14.151v4.702H19.47c-10.736 0-19.47 8.734-19.47 19.47v201.964a7.5 7.5 0 0 0 15 0v-7.159c.445.037.895.055 1.349.055h15.005c0 88.661-.127 82.892.288 84.915 1.322 6.442 7.035 11.303 13.863 11.303h183.849c4.209 0 5.427 3.133 6.752 4.402v22.681a32.165 32.165 0 0 0-17.151-4.982H19.47a4.475 4.475 0 0 1-4.47-4.47v-71.745a7.5 7.5 0 0 0-15 0v71.745c0 10.736 8.734 19.47 19.47 19.47h199.484c6.058 0 11.729 3.253 14.802 8.488 4.477 7.634 15.322 7.459 19.698.001 3.073-5.236 8.745-8.489 14.803-8.489H467.74c10.736 0 19.47-8.734 19.47-19.47V160.063c0-10.736-8.734-19.471-19.47-19.471zm-79.815 109.419c-11.228 0-20.362-9.134-20.362-20.362V214.33h40.724v15.319c0 11.228-9.135 20.362-20.362 20.362zM257.857 136.739h59.217c.412 10.175 3.112 20.379 7.674 29.29h-38.31a8.296 8.296 0 0 0 0 16.591h50.087c6.293 6.62 10.524 12.519 14.252 21.033h-64.339a8.296 8.296 0 0 0 0 16.591h66.125v9.406c0 4.073.7 7.983 1.973 11.626h-68.098a8.296 8.296 0 0 0 0 16.591l79.847-.28c5.986 4.647 13.493 7.424 21.64 7.424 19.499 0 35.362-15.863 35.362-35.362v-21.492c5.539-15.613 14.434-23.66 17.57-27.179v255.163h-183l-.042.002c-2.308.004-4.83.452-6.709 1.068V143.492a6.76 6.76 0 0 1 6.751-6.753zM15 160.063a4.475 4.475 0 0 1 4.47-4.47h11.884V284.62H16.349c-.454 0-.904.019-1.349.055zm1.349 179.86A1.35 1.35 0 0 1 15 338.574v-37.606a1.35 1.35 0 0 1 1.349-1.349h27.765v40.303H16.349zm35.265 15h103.97c1.428 0 2.994-.45 4.278-1.344.013-.009.027-.015.04-.024l32.845-23.13c3.461-2.438 5.528-6.42 5.528-10.654s-2.067-8.216-5.528-10.653l-32.845-23.13c-.014-.01-.03-.017-.044-.027a7.495 7.495 0 0 0-3.936-1.324c-.113-.005-.224-.017-.339-.017H46.354V136.739h183a6.76 6.76 0 0 1 6.752 6.752V437.21c-1.938-.63-4.447-1.063-6.708-1.068l-.044-.002h-183v-81.217zm96.469-15h-88.97V299.62h88.97zm33.74-20.151-18.739 13.197v-26.394zm290.387 149a4.475 4.475 0 0 1-4.47 4.47H268.257c-6.15 0-12.086 1.787-17.151 4.982v-22.681c1.364-1.309 2.501-4.401 6.751-4.401h183.849c7.802 0 14.151-6.348 14.151-14.151V155.592h11.884a4.475 4.475 0 0 1 4.47 4.47v308.71z" fill="#000000" data-original="#000000" class=""></path></g></svg>